<svg width="800" height="600" viewBox="0 0 800 600" xmlns="http://www.w3.org/2000/svg">
  <!-- Background wave pattern -->
  <path d="M0,300 C150,200 250,400 400,300 C550,200 650,400 800,300" stroke="#EBF4FF" stroke-width="120" fill="none" opacity="0.5" />
  <path d="M0,300 C150,250 250,350 400,300 C550,250 650,350 800,300" stroke="#E9D5FF" stroke-width="80" fill="none" opacity="0.4" />
  
  <!-- Brain wave visualization -->
  <path d="M50,300 C100,250 150,350 200,300 C250,250 300,350 350,300 C400,250 450,350 500,300 C550,250 600,350 650,300 C700,250 750,350 800,300" stroke="#8B5CF6" stroke-width="3" fill="none" />
  
  <!-- Brain icon -->
  <circle cx="400" cy="200" r="60" fill="#F3F4F6" stroke="#8B5CF6" stroke-width="2" />
  <path d="M370,180 C370,160 430,160 430,180 C450,180 450,220 430,220 C430,240 370,240 370,220 C350,220 350,180 370,180 Z" stroke="#8B5CF6" stroke-width="2" fill="none" />
  <path d="M385,170 C385,160 415,160 415,170" stroke="#8B5CF6" stroke-width="2" fill="none" />
  <path d="M385,230 C385,240 415,240 415,230" stroke="#8B5CF6" stroke-width="2" fill="none" />
  <path d="M360,200 C350,200 350,200 360,200" stroke="#8B5CF6" stroke-width="2" fill="none" />
  <path d="M440,200 C450,200 450,200 440,200" stroke="#8B5CF6" stroke-width="2" fill="none" />
  
  <!-- Connection lines -->
  <line x1="400" y1="260" x2="400" y2="300" stroke="#8B5CF6" stroke-width="2" stroke-dasharray="5,5" />
</svg>