<svg width="800" height="600" viewBox="0 0 800 600" xmlns="http://www.w3.org/2000/svg">
  <!-- Background wave pattern -->
  <path d="M0,300 C150,200 250,400 400,300 C550,200 650,400 800,300" stroke="#6B7280" stroke-width="120" fill="none" opacity="0.5" />
  <path d="M0,300 C150,250 250,350 400,300 C550,250 650,350 800,300" stroke="#4B5563" stroke-width="80" fill="none" opacity="0.4" />
  
  <!-- Subtle wave lines -->
  <path d="M0,100 C100,80 200,120 300,100 C400,80 500,120 600,100 C700,80 800,120 900,100" stroke="#374151" stroke-width="1" fill="none" />
  <path d="M0,150 C100,130 200,170 300,150 C400,130 500,170 600,150 C700,130 800,170 900,150" stroke="#374151" stroke-width="1" fill="none" />
  <path d="M0,200 C100,180 200,220 300,200 C400,180 500,220 600,200 C700,180 800,220 900,200" stroke="#374151" stroke-width="1" fill="none" />
  <path d="M0,250 C100,230 200,270 300,250 C400,230 500,270 600,250 C700,230 800,270 900,250" stroke="#374151" stroke-width="1" fill="none" />
  <path d="M0,350 C100,330 200,370 300,350 C400,330 500,370 600,350 C700,330 800,370 900,350" stroke="#374151" stroke-width="1" fill="none" />
  <path d="M0,400 C100,380 200,420 300,400 C400,380 500,420 600,400 C700,380 800,420 900,400" stroke="#374151" stroke-width="1" fill="none" />
  <path d="M0,450 C100,430 200,470 300,450 C400,430 500,470 600,450 C700,430 800,470 900,450" stroke="#374151" stroke-width="1" fill="none" />
  <path d="M0,500 C100,480 200,520 300,500 C400,480 500,520 600,500 C700,480 800,520 900,500" stroke="#374151" stroke-width="1" fill="none" />
</svg>